<?xml version="1.0" encoding="utf-8"?>
<!-- Generator: Adobe Illustrator 21.1.0, SVG Export Plug-In . SVG Version: 6.00 Build 0)  -->
<svg id="Слой_1" xmlns="http://www.w3.org/2000/svg" xmlns:xlink="http://www.w3.org/1999/xlink" viewBox="0 0 176 61.1">
<g>
	<polygon fill="#FFFFFF" points="90.6,46.7 90.6,46.7 79.4,56.8 79.4,46.7 76.7,46.7 76.7,59.3 76.7,60.5 79.4,60.5 79.4,60.5 
		79.4,60.5 90.6,50.4 90.6,60.5 93.4,60.5 93.4,46.7 	"/>
	<polygon fill="#FFFFFF" points="71.5,46.7 65.6,46.7 62.8,46.7 56.8,46.7 56.8,49.4 62.8,49.4 62.8,60.5 65.6,60.5 65.6,49.4 
		71.5,49.4 	"/>
	<polygon fill="#FFFFFF" points="34.4,49.4 34.4,46.7 22.5,46.7 22.5,46.7 21.2,46.7 21.2,60.5 23.9,60.5 23.9,60.5 34.4,60.5 
		34.4,57.8 23.9,57.8 23.9,55 34.4,55 34.4,52.2 23.9,52.2 23.9,49.4 	"/>
	<path fill="#FFFFFF" d="M134.6,57.8l-4-8.3l-1.3-2.8h-2.5h-0.6h-2.5l-1.3,2.8l-4,8.3l-1.3,2.8h3.1l1.3-2.8h10l1.3,2.8h3.1
		L134.6,57.8z M122.8,55l2.6-5.5h2.1l2.6,5.5H122.8z"/>
	<polygon fill="#FFFFFF" points="153,46.7 144.4,46.7 141.6,46.7 141.6,56.7 140.9,57.8 138.9,60.5 141.6,60.5 142.3,60.5 
		144.3,57.8 144.4,57.6 144.4,52.9 144.4,49.4 153,49.4 153,60.5 155.8,60.5 155.8,49.4 155.8,46.7 	"/>
	<g>
		<path fill="#FFFFFF" d="M14.8,52.8c0.4-0.6,0.6-1.2,0.6-2c0-4.4-3.1-4.4-4.1-4.4H1v14h0.7v0h2.9l7,0l0.2,0c1,0,2.4,0,3.5-1
			c0.8-0.8,1.1-1.9,1.1-3.5C16.3,54.6,15.8,53.5,14.8,52.8z M3.8,49.4h8c0,0,0.9,0,0.9,1.3c0,1.1-0.6,1.4-0.8,1.4H3.8V49.4z
			 M12.6,57.8H3.8V55h8.8v0c0,0,0.9,0.1,0.9,1.4C13.5,57.7,12.7,57.8,12.6,57.8z"/>
	</g>
	<polygon fill="#FFFFFF" points="114.3,46.7 110.4,46.7 105.1,52.2 101.2,52.2 101.2,46.7 98.4,46.7 98.4,60.5 101.2,60.5 101.2,55 
		105.1,55 110.4,60.6 114.3,60.6 107.7,53.6 	"/>
	<path fill="#FFFFFF" d="M48.3,46.7c-2.8,0-3.6,0-6.3,0v0h-2.8v13.9H42v-4.2h6.2l0.1,0c0,0,0.1,0,0.1,0c0.9,0,2.6,0,3.8-1.3
		c0.8-0.8,1.3-2.1,1.3-3.6C53.5,49.3,52.6,46.7,48.3,46.7z M50.2,53.2c-0.4,0.4-1.3,0.4-1.9,0.4H42v-4.1c2.7,0,3.6,0,6.3,0
		c1.6,0,2.4,0.2,2.4,2C50.7,52.1,50.6,52.8,50.2,53.2z"/>
	<path fill="#FFFFFF" d="M175,55.7c0-1.5-0.4-2.8-1.3-3.6c-1.2-1.2-2.9-1.3-3.8-1.3c0,0-0.1,0-0.1,0l-0.1,0h-6.2v-4.2h-2.8v13.9h2.8
		v0c2.7,0,3.6,0,6.3,0C174.1,60.5,175,57.9,175,55.7z M172.2,55.7c0,1.8-0.8,2-2.4,2c-2.8,0-3.6,0-6.3,0v-4.1h6.3
		c0.6,0,1.5,0,1.9,0.4C172.1,54.4,172.2,55.2,172.2,55.7z"/>
	<path fill="#FFFFFF" d="M175,55.7c0-1.5-0.4-2.8-1.3-3.6c-1.2-1.2-2.9-1.3-3.8-1.3c0,0-0.1,0-0.1,0l-0.1,0h-6.2v-4.2h-2.8v13.9h2.8
		v0c2.7,0,3.6,0,6.3,0C174.1,60.5,175,57.9,175,55.7z M172.2,55.7c0,1.8-0.8,2-2.4,2c-2.8,0-3.6,0-6.3,0v-4.1h6.3
		c0.6,0,1.5,0,1.9,0.4C172.1,54.4,172.2,55.2,172.2,55.7z"/>
		
	<g class="logo__roof">
		<polygon fill="#FFFFFF" points="163.6,41.6 160.6,41.6 160.6,25.5 126.3,3.9 24,35.5 24,41.6 21,41.6 21,33.2 126.7,0.6 
		163.6,23.8 	"/>
		<rect x="125" y="2.2" fill="#FFFFFF" width="3.1" height="39.4"/>
	</g>
</g>
</svg>
