<svg xmlns="http://www.w3.org/2000/svg" xmlns:xlink="http://www.w3.org/1999/xlink" viewBox="0 0 25 26" width="25" height="26">
	<path id="22"  d="M0.2,21.4c0,1.1,1,2,1.9,2.9c0.2,0.2,0.4,0.3,0.5,0.5c0.8,0.8,3,0.7,5.5-0.2c3.1-1.2,6.5-3.5,9.5-6.5
	c3-3,5.4-6.4,6.5-9.5c0.9-2.5,1-4.6,0.2-5.5c-0.2-0.2-0.3-0.3-0.5-0.5c-0.9-0.9-1.9-2-2.9-1.9c-0.8,0-1.6,0.6-2.4,1.6
	c-2.5,3.1-1.6,4-0.2,5.5L18.6,8c0.7,0.7,0.5,1.8-0.5,3.4c-0.7,1.1-1.8,2.4-3.3,3.9c-3.8,3.8-6.1,5-7.3,3.8l-0.3-0.3
	c-1.5-1.5-2.3-2.4-5.5,0.2C0.7,19.8,0.2,20.6,0.2,21.4C0.2,21.4,0.2,21.4,0.2,21.4z"/>
</svg>
