<?xml version="1.0" encoding="utf-8"?><svg xmlns="http://www.w3.org/2000/svg" xmlns:xlink="http://www.w3.org/1999/xlink"><symbol viewBox="0 0 25 26" id="close" xmlns="http://www.w3.org/2000/svg"><path d="M.8.8l16.4 16.4m-16.4 0L17.2.8"/></symbol><symbol viewBox="0 0 176 61.1" id="header__logo_normal" xmlns="http://www.w3.org/2000/svg"><path fill="#152335" d="M90.6 46.7L79.4 56.8V46.7h-2.7v13.8h2.7l11.2-10.1v10.1h2.8V46.7zm-19.1 0H56.8v2.7h6v11.1h2.8V49.4h5.9zm-37.1 2.7v-2.7H21.2v13.8h13.2v-2.7H23.9V55h10.5v-2.8H23.9v-2.8zm100.2 8.4l-4-8.3-1.3-2.8h-5.6l-1.3 2.8-4 8.3-1.3 2.8h3.1l1.3-2.8h10l1.3 2.8h3.1l-1.3-2.8zM122.8 55l2.6-5.5h2.1l2.6 5.5h-7.3zm30.2-8.3h-11.4v10l-.7 1.1-2 2.7h3.4l2-2.7.1-.2v-8.2h8.6v11.1h2.8V46.7zM14.8 52.8c.4-.6.6-1.2.6-2 0-4.4-3.1-4.4-4.1-4.4H1v14h10.8c1 0 2.4 0 3.5-1 .8-.8 1.1-1.9 1.1-3.5-.1-1.3-.6-2.4-1.6-3.1zm-11-3.4h8s.9 0 .9 1.3c0 1.1-.6 1.4-.8 1.4H3.8v-2.7zm8.8 8.4H3.8V55h8.8s.9.1.9 1.4c0 1.3-.8 1.4-.9 1.4zm101.7-11.1h-3.9l-5.3 5.5h-3.9v-5.5h-2.8v13.8h2.8V55h3.9l5.3 5.6h3.9l-6.6-7zm-66 0h-9.1v13.9H42v-4.2h6.4c.9 0 2.6 0 3.8-1.3.8-.8 1.3-2.1 1.3-3.6 0-2.2-.9-4.8-5.2-4.8zm1.9 6.5c-.4.4-1.3.4-1.9.4H42v-4.1h6.3c1.6 0 2.4.2 2.4 2 0 .6-.1 1.3-.5 1.7zM175 55.7c0-1.5-.4-2.8-1.3-3.6-1.2-1.2-2.9-1.3-3.8-1.3h-6.4v-4.2h-2.8v13.9h9.1c4.3 0 5.2-2.6 5.2-4.8zm-2.8 0c0 1.8-.8 2-2.4 2h-6.3v-4.1h6.3c.6 0 1.5 0 1.9.4.4.4.5 1.2.5 1.7z"/><path fill="#152335" d="M175 55.7c0-1.5-.4-2.8-1.3-3.6-1.2-1.2-2.9-1.3-3.8-1.3h-6.4v-4.2h-2.8v13.9h9.1c4.3 0 5.2-2.6 5.2-4.8zm-2.8 0c0 1.8-.8 2-2.4 2h-6.3v-4.1h6.3c.6 0 1.5 0 1.9.4.4.4.5 1.2.5 1.7z"/><path fill="#D91F26" d="M163.6 41.6h-3V25.5L126.3 3.9 24 35.5v6.1h-3v-8.4L126.7.6l36.9 23.2z"/><path fill="#D91F26" d="M125 2.2h3.1v39.4H125z"/></symbol><symbol viewBox="0 0 176 61.1" id="header__logo_white" xmlns="http://www.w3.org/2000/svg"><path fill="#FFF" d="M90.6 46.7L79.4 56.8V46.7h-2.7v13.8h2.7l11.2-10.1v10.1h2.8V46.7zm-19.1 0H56.8v2.7h6v11.1h2.8V49.4h5.9zm-37.1 2.7v-2.7H21.2v13.8h13.2v-2.7H23.9V55h10.5v-2.8H23.9v-2.8zm100.2 8.4l-4-8.3-1.3-2.8h-5.6l-1.3 2.8-4 8.3-1.3 2.8h3.1l1.3-2.8h10l1.3 2.8h3.1l-1.3-2.8zM122.8 55l2.6-5.5h2.1l2.6 5.5h-7.3zm30.2-8.3h-11.4v10l-.7 1.1-2 2.7h3.4l2-2.7.1-.2v-8.2h8.6v11.1h2.8V46.7zM14.8 52.8c.4-.6.6-1.2.6-2 0-4.4-3.1-4.4-4.1-4.4H1v14h10.8c1 0 2.4 0 3.5-1 .8-.8 1.1-1.9 1.1-3.5-.1-1.3-.6-2.4-1.6-3.1zm-11-3.4h8s.9 0 .9 1.3c0 1.1-.6 1.4-.8 1.4H3.8v-2.7zm8.8 8.4H3.8V55h8.8s.9.1.9 1.4c0 1.3-.8 1.4-.9 1.4zm101.7-11.1h-3.9l-5.3 5.5h-3.9v-5.5h-2.8v13.8h2.8V55h3.9l5.3 5.6h3.9l-6.6-7zm-66 0h-9.1v13.9H42v-4.2h6.4c.9 0 2.6 0 3.8-1.3.8-.8 1.3-2.1 1.3-3.6 0-2.2-.9-4.8-5.2-4.8zm1.9 6.5c-.4.4-1.3.4-1.9.4H42v-4.1h6.3c1.6 0 2.4.2 2.4 2 0 .6-.1 1.3-.5 1.7zM175 55.7c0-1.5-.4-2.8-1.3-3.6-1.2-1.2-2.9-1.3-3.8-1.3h-6.4v-4.2h-2.8v13.9h9.1c4.3 0 5.2-2.6 5.2-4.8zm-2.8 0c0 1.8-.8 2-2.4 2h-6.3v-4.1h6.3c.6 0 1.5 0 1.9.4.4.4.5 1.2.5 1.7z"/><path fill="#FFF" d="M175 55.7c0-1.5-.4-2.8-1.3-3.6-1.2-1.2-2.9-1.3-3.8-1.3h-6.4v-4.2h-2.8v13.9h9.1c4.3 0 5.2-2.6 5.2-4.8zm-2.8 0c0 1.8-.8 2-2.4 2h-6.3v-4.1h6.3c.6 0 1.5 0 1.9.4.4.4.5 1.2.5 1.7z"/><g class="clogo__roof" fill="#FFF"><path d="M163.6 41.6h-3V25.5L126.3 3.9 24 35.5v6.1h-3v-8.4L126.7.6l36.9 23.2z"/><path d="M125 2.2h3.1v39.4H125z"/></g></symbol><symbol viewBox="0 0 25 26" id="icon" xmlns="http://www.w3.org/2000/svg"><path d="M.2 21.4c0 1.1 1 2 1.9 2.9.2.2.4.3.5.5.8.8 3 .7 5.5-.2 3.1-1.2 6.5-3.5 9.5-6.5s5.4-6.4 6.5-9.5c.9-2.5 1-4.6.2-5.5l-.5-.5c-.9-.9-1.9-2-2.9-1.9-.8 0-1.6.6-2.4 1.6-2.5 3.1-1.6 4-.2 5.5l.3.2c.7.7.5 1.8-.5 3.4-.7 1.1-1.8 2.4-3.3 3.9-3.8 3.8-6.1 5-7.3 3.8l-.3-.3c-1.5-1.5-2.3-2.4-5.5.2-1 .8-1.5 1.6-1.5 2.4z"/></symbol></svg>